  <svg viewBox="0 0 1024 1024" version="1.1" xmlns="http://www.w3.org/2000/svg" width="16" height="16">
    <path
      fill="#006cff"
      d="M871.23968 191.16032h-686.08a40.96 40.96 0 0 0-40.96 40.96v573.44a40.96 40.96 0 0 0 40.96 40.96h686.08a40.96 40.96 0 0 0 40.96-40.96v-573.44a40.96 40.96 0 0 0-40.96-40.96z m-90.43968 51.28192a32.3584 32.3584 0 1 1-0.04096 64.67584 32.3584 32.3584 0 0 1 0.04096-64.67584z m-91.32032 0a32.3584 32.3584 0 1 1 0.02048 64.69632 32.3584 32.3584 0 0 1-0.02048-64.69632z m-91.32032 0a32.3584 32.3584 0 1 1 0.02048 64.69632 32.3584 32.3584 0 0 1-0.02048-64.69632z m232.12032 522.15808h-604.16V348.16h604.16v416.44032z m-445.41952-61.39904a30.72 30.72 0 0 1-21.72928-52.4288l98.11968-98.11968-98.11968-98.11968a30.72 30.72 0 1 1 43.43808-43.43808l119.84896 119.84896a30.72 30.72 0 0 1 0 43.43808l-119.84896 119.84896a30.69952 30.69952 0 0 1-21.7088 8.97024z m320.86016 0h-157.02016a30.72 30.72 0 0 1 0-61.44h157.02016a30.72 30.72 0 0 1 0 61.44z"
    ></path>
  </svg>